<svg viewBox="0 0 600 300" xmlns="http://www.w3.org/2000/svg"><polygon points="295,133 295,106 262,131" fill="#a286ba" stroke="#a286ba" /><polygon points="295,106 270,85 262,131" fill="#9d7cb6" stroke="#9d7cb6" /><polygon points="262,131 277,167 295,133" fill="#9f8eb7" stroke="#9f8eb7" /><polygon points="270,85 232,102 262,131" fill="#937eb4" stroke="#937eb4" /><polygon points="262,131 209,145 277,167" fill="#9492b6" stroke="#9492b6" /><polygon points="294,174 318,159 295,133" fill="#a88cb3" stroke="#a88cb3" /><polygon points="295,133 354,128 295,106" fill="#a678b0" stroke="#a678b0" /><polygon points="277,167 294,174 295,133" fill="#a291b4" stroke="#a291b4" /><polygon points="270,85 247,73 232,102" fill="#9476b1" stroke="#9476b1" /><polygon points="229,195 280,190 277,167" fill="#afa5bb" stroke="#afa5bb" /><polygon points="277,167 280,190 294,174" fill="#a894af" stroke="#a894af" /><polygon points="336,208 342,158 318,159" fill="#af90aa" stroke="#af90aa" /><polygon points="296,49 270,85 295,106" fill="#a067ac" stroke="#a067ac" /><polygon points="296,49 294,49 270,85" fill="#a15ea6" stroke="#a15ea6" /><polygon points="270,85 294,49 247,73" fill="#9c69ad" stroke="#9c69ad" /><polygon points="350,83 296,49 295,106" fill="#a25ba5" stroke="#a25ba5" /><polygon points="247,42 235,62 247,73" fill="#9872b2" stroke="#9872b2" /><polygon points="247,73 235,62 232,102" fill="#8e72ad" stroke="#8e72ad" /><polygon points="336,208 318,159 294,174" fill="#b290ab" stroke="#b290ab" /><polygon points="318,159 354,128 295,133" fill="#a57fae" stroke="#a57fae" /><polygon points="207,92 209,145 232,102" fill="#9190bf" stroke="#9190bf" /><polygon points="232,102 209,145 262,131" fill="#9794c0" stroke="#9794c0" /><polygon points="342,158 354,128 318,159" fill="#aa82ac" stroke="#aa82ac" /><polygon points="235,62 207,92 232,102" fill="#8f7cb3" stroke="#8f7cb3" /><polygon points="354,128 350,83 295,106" fill="#9f69a8" stroke="#9f69a8" /><polygon points="280,0 247,42 294,49" fill="#9b59a0" stroke="#9b59a0" /><polygon points="294,49 247,42 247,73" fill="#9662a6" stroke="#9662a6" /><polygon points="166,53 180,109 207,92" fill="#968cbc" stroke="#968cbc" /><polygon points="209,145 229,195 277,167" fill="#9b9db6" stroke="#9b9db6" /><polygon points="342,158 371,127 354,128" fill="#a375a3" stroke="#a375a3" /><polygon points="354,128 366,86 350,83" fill="#a45da0" stroke="#a45da0" /><polygon points="371,127 366,86 354,128" fill="#a2619e" stroke="#a2619e" /><polygon points="350,83 355,55 296,49" fill="#a14898" stroke="#a14898" /><polygon points="366,86 355,55 350,83" fill="#9f4292" stroke="#9f4292" /><polygon points="296,49 280,0 294,49" fill="#a2549f" stroke="#a2549f" /><polygon points="166,53 207,92 235,62" fill="#9380b7" stroke="#9380b7" /><polygon points="207,92 180,109 209,145" fill="#9195c1" stroke="#9195c1" /><polygon points="209,145 191,190 229,195" fill="#a1acbf" stroke="#a1acbf" /><polygon points="401,137 383,125 371,127" fill="#a36d9e" stroke="#a36d9e" /><polygon points="371,127 383,125 366,86" fill="#a15d9b" stroke="#a15d9b" /><polygon points="365,29 354,34 355,55" fill="#a73590" stroke="#a73590" /><polygon points="317,248 336,208 280,190" fill="#caa1ab" stroke="#caa1ab" /><polygon points="280,190 336,208 294,174" fill="#b094a9" stroke="#b094a9" /><polygon points="342,158 385,177 371,127" fill="#a97da3" stroke="#a97da3" /><polygon points="206,216 245,225 229,195" fill="#b5b1b6" stroke="#b5b1b6" /><polygon points="229,195 245,225 280,190" fill="#b1a6b1" stroke="#b1a6b1" /><polygon points="169,154 191,190 209,145" fill="#a1adc5" stroke="#a1adc5" /><polygon points="393,71 355,55 366,86" fill="#a74093" stroke="#a74093" /><polygon points="355,55 354,34 296,49" fill="#9f4094" stroke="#9f4094" /><polygon points="180,109 169,154 209,145" fill="#96a2c4" stroke="#96a2c4" /><polygon points="315,0 280,0 296,49" fill="#a24e95" stroke="#a24e95" /><polygon points="247,42 207,14 235,62" fill="#946eae" stroke="#946eae" /><polygon points="336,208 385,177 342,158" fill="#b38da3" stroke="#b38da3" /><polygon points="188,228 206,216 191,190" fill="#b9babd" stroke="#b9babd" /><polygon points="191,190 206,216 229,195" fill="#b5b7c1" stroke="#b5b7c1" /><polygon points="385,177 401,137 371,127" fill="#aa779f" stroke="#aa779f" /><polygon points="402,95 393,71 366,86" fill="#a74d97" stroke="#a74d97" /><polygon points="402,95 366,86 383,125" fill="#a75b9c" stroke="#a75b9c" /><polygon points="280,0 245,0 247,42" fill="#9a619c" stroke="#9a619c" /><polygon points="393,71 365,29 355,55" fill="#aa3992" stroke="#aa3992" /><polygon points="354,34 315,0 296,49" fill="#a14394" stroke="#a14394" /><polygon points="350,0 315,0 354,34" fill="#a13682" stroke="#a13682" /><polygon points="401,137 402,95 383,125" fill="#a2659a" stroke="#a2659a" /><polygon points="245,0 207,14 247,42" fill="#8f679f" stroke="#8f679f" /><polygon points="180,109 152,146 169,154" fill="#9aa8c8" stroke="#9aa8c8" /><polygon points="169,154 161,189 191,190" fill="#a2b1c0" stroke="#a2b1c0" /><polygon points="149,111 152,146 180,109" fill="#929ec2" stroke="#929ec2" /><polygon points="151,61 149,111 180,109" fill="#9596c2" stroke="#9596c2" /><polygon points="206,216 226,239 245,225" fill="#c2b8b7" stroke="#c2b8b7" /><polygon points="296,254 317,248 280,190" fill="#d5afb1" stroke="#d5afb1" /><polygon points="192,18 166,53 235,62" fill="#9076ad" stroke="#9076ad" /><polygon points="149,111 148,144 152,146" fill="#97a8c6" stroke="#97a8c6" /><polygon points="152,146 161,189 169,154" fill="#9eb1c5" stroke="#9eb1c5" /><polygon points="207,14 192,18 235,62" fill="#9575ad" stroke="#9575ad" /><polygon points="210,0 192,18 207,14" fill="#8f71a0" stroke="#8f71a0" /><polygon points="296,254 280,190 245,225" fill="#cab0b2" stroke="#cab0b2" /><polygon points="336,208 377,224 385,177" fill="#c595a0" stroke="#c595a0" /><polygon points="226,239 258,252 245,225" fill="#cbb9b5" stroke="#cbb9b5" /><polygon points="258,252 296,254 245,225" fill="#d6b8b5" stroke="#d6b8b5" /><polygon points="129,183 161,189 152,146" fill="#a4b9c7" stroke="#a4b9c7" /><polygon points="206,216 188,228 226,239" fill="#c6c0bc" stroke="#c6c0bc" /><polygon points="245,0 210,0 207,14" fill="#8c6898" stroke="#8c6898" /><polygon points="365,29 350,0 354,34" fill="#a42f83" stroke="#a42f83" /><polygon points="385,0 350,0 365,29" fill="#a6277a" stroke="#a6277a" /><polygon points="135,43 151,61 166,53" fill="#9689b9" stroke="#9689b9" /><polygon points="166,53 151,61 180,109" fill="#998dbd" stroke="#998dbd" /><polygon points="385,177 412,167 401,137" fill="#ab809d" stroke="#ab809d" /><polygon points="401,137 421,89 402,95" fill="#a05e98" stroke="#a05e98" /><polygon points="419,222 412,167 385,177" fill="#b58b97" stroke="#b58b97" /><polygon points="149,111 138,128 148,144" fill="#9fafcf" stroke="#9fafcf" /><polygon points="148,144 124,154 152,146" fill="#9db2ca" stroke="#9db2ca" /><polygon points="127,118 138,128 149,111" fill="#99a8c9" stroke="#99a8c9" /><polygon points="175,229 188,228 191,190" fill="#bebdbe" stroke="#bebdbe" /><polygon points="226,239 242,271 258,252" fill="#d2bcb4" stroke="#d2bcb4" /><polygon points="317,248 377,224 336,208" fill="#cea19f" stroke="#cea19f" /><polygon points="458,132 421,89 401,137" fill="#9d6593" stroke="#9d6593" /><polygon points="402,95 421,89 393,71" fill="#994489" stroke="#994489" /><polygon points="393,71 413,53 365,29" fill="#a33189" stroke="#a33189" /><polygon points="135,43 142,65 151,61" fill="#9a8fbb" stroke="#9a8fbb" /><polygon points="151,61 142,65 149,111" fill="#9b95c1" stroke="#9b95c1" /><polygon points="175,0 166,53 192,18" fill="#937ba9" stroke="#937ba9" /><polygon points="421,89 413,53 393,71" fill="#9d3d89" stroke="#9d3d89" /><polygon points="157,224 175,229 161,189" fill="#c1c4c4" stroke="#c1c4c4" /><polygon points="161,189 175,229 191,190" fill="#b1b7bc" stroke="#b1b7bc" /><polygon points="191,254 242,271 226,239" fill="#d3c4bb" stroke="#d3c4bb" /><polygon points="142,65 127,118 149,111" fill="#9b9fc6" stroke="#9b9fc6" /><polygon points="138,128 124,154 148,144" fill="#a2b7d0" stroke="#a2b7d0" /><polygon points="191,254 226,239 188,228" fill="#cec6be" stroke="#cec6be" /><polygon points="258,252 280,284 296,254" fill="#dcb9ae" stroke="#dcb9ae" /><polygon points="296,254 315,300 317,248" fill="#e3b3ac" stroke="#e3b3ac" /><polygon points="210,0 175,0 192,18" fill="#9175a0" stroke="#9175a0" /><polygon points="127,118 124,154 138,128" fill="#a1b5d1" stroke="#a1b5d1" /><polygon points="413,53 385,0 365,29" fill="#a52681" stroke="#a52681" /><polygon points="129,183 157,224 161,189" fill="#b5c1c6" stroke="#b5c1c6" /><polygon points="175,229 191,254 188,228" fill="#c7c1ba" stroke="#c7c1ba" /><polygon points="157,224 191,254 175,229" fill="#d0ccc5" stroke="#d0ccc5" /><polygon points="421,89 424,49 413,53" fill="#9e3783" stroke="#9e3783" /><polygon points="413,53 420,0 385,0" fill="#a01f72" stroke="#a01f72" /><polygon points="124,154 129,183 152,146" fill="#a6bbcd" stroke="#a6bbcd" /><polygon points="175,0 135,43 166,53" fill="#9784b3" stroke="#9784b3" /><polygon points="142,65 107,62 127,118" fill="#9d9dc4" stroke="#9d9dc4" /><polygon points="280,300 280,284 245,300" fill="#e0bbbe" stroke="#e0bbbe" /><polygon points="242,271 280,284 258,252" fill="#ddbeb6" stroke="#ddbeb6" /><polygon points="317,248 350,300 377,224" fill="#e1aca1" stroke="#e1aca1" /><polygon points="116,40 121,53 135,43" fill="#9d93bd" stroke="#9d93bd" /><polygon points="135,43 121,53 142,65" fill="#988fbb" stroke="#988fbb" /><polygon points="127,118 69,151 124,154" fill="#a7c0d5" stroke="#a7c0d5" /><polygon points="410,249 419,222 377,224" fill="#d19a91" stroke="#d19a91" /><polygon points="377,224 419,222 385,177" fill="#c79699" stroke="#c79699" /><polygon points="412,167 458,132 401,137" fill="#997190" stroke="#997190" /><polygon points="421,89 460,89 424,49" fill="#943b7f" stroke="#943b7f" /><polygon points="462,155 458,132 412,167" fill="#9c7a91" stroke="#9c7a91" /><polygon points="245,300 280,284 242,271" fill="#debdbd" stroke="#debdbd" /><polygon points="280,284 315,300 296,254" fill="#e3b7b4" stroke="#e3b7b4" /><polygon points="140,0 116,40 135,43" fill="#978ab2" stroke="#978ab2" /><polygon points="121,53 107,62 142,65" fill="#9c96be" stroke="#9c96be" /><polygon points="116,40 107,62 121,53" fill="#a09ac0" stroke="#a09ac0" /><polygon points="124,154 107,193 129,183" fill="#aec3cd" stroke="#aec3cd" /><polygon points="458,132 460,89 421,89" fill="#985789" stroke="#985789" /><polygon points="424,49 420,0 413,53" fill="#9c2078" stroke="#9c2078" /><polygon points="175,0 140,0 135,43" fill="#9886ae" stroke="#9886ae" /><polygon points="210,300 245,300 242,271" fill="#d7bfbe" stroke="#d7bfbe" /><polygon points="280,300 315,300 280,284" fill="#e7b8be" stroke="#e7b8be" /><polygon points="386,296 410,249 377,224" fill="#dda593" stroke="#dda593" /><polygon points="456,200 462,155 412,167" fill="#a3848e" stroke="#a3848e" /><polygon points="455,0 420,0 424,49" fill="#961664" stroke="#961664" /><polygon points="456,200 412,167 419,222" fill="#b88f91" stroke="#b88f91" /><polygon points="492,104 477,85 460,89" fill="#834f81" stroke="#834f81" /><polygon points="69,151 107,193 124,154" fill="#aec7d2" stroke="#aec7d2" /><polygon points="129,183 105,228 157,224" fill="#c2cbc8" stroke="#c2cbc8" /><polygon points="175,300 205,295 191,254" fill="#dbcbc6" stroke="#dbcbc6" /><polygon points="191,254 205,295 242,271" fill="#d8c5bf" stroke="#d8c5bf" /><polygon points="175,300 191,254 137,290" fill="#d9cdc5" stroke="#d9cdc5" /><polygon points="205,295 210,300 242,271" fill="#e0cbca" stroke="#e0cbca" /><polygon points="315,300 350,300 317,248" fill="#e1adab" stroke="#e1adab" /><polygon points="438,234 456,200 419,222" fill="#c19989" stroke="#c19989" /><polygon points="425,274 438,234 410,249" fill="#d8a48c" stroke="#d8a48c" /><polygon points="410,249 438,234 419,222" fill="#cc9d8a" stroke="#cc9d8a" /><polygon points="492,104 460,89 458,132" fill="#8a5d8a" stroke="#8a5d8a" /><polygon points="460,89 477,85 424,49" fill="#8d3d7c" stroke="#8d3d7c" /><polygon points="487,159 458,132 462,155" fill="#8b7489" stroke="#8b7489" /><polygon points="100,228 105,228 107,193" fill="#cdd9d0" stroke="#cdd9d0" /><polygon points="107,193 105,228 129,183" fill="#bfcdcd" stroke="#bfcdcd" /><polygon points="205,295 175,300 210,300" fill="#e4d1d2" stroke="#e4d1d2" /><polygon points="350,300 386,296 377,224" fill="#e3a89d" stroke="#e3a89d" /><polygon points="137,290 191,254 157,224" fill="#d5cdc0" stroke="#d5cdc0" /><polygon points="350,300 385,300 386,296" fill="#e9a7aa" stroke="#e9a7aa" /><polygon points="386,296 425,274 410,249" fill="#dfa996" stroke="#dfa996" /><polygon points="62,171 100,228 107,193" fill="#bcd1ce" stroke="#bcd1ce" /><polygon points="105,228 120,270 157,224" fill="#d1d1c5" stroke="#d1d1c5" /><polygon points="140,0 105,0 116,40" fill="#a195b4" stroke="#a195b4" /><polygon points="116,40 71,29 107,62" fill="#a5a0c5" stroke="#a5a0c5" /><polygon points="38,122 69,151 127,118" fill="#aac3d8" stroke="#aac3d8" /><polygon points="484,182 462,155 456,200" fill="#a08389" stroke="#a08389" /><polygon points="484,182 487,159 462,155" fill="#8f7f8a" stroke="#8f7f8a" /><polygon points="430,285 425,274 420,300" fill="#dea797" stroke="#dea797" /><polygon points="479,210 484,182 456,200" fill="#a78c86" stroke="#a78c86" /><polygon points="466,14 455,0 424,49" fill="#8f1861" stroke="#8f1861" /><polygon points="60,159 69,151 38,122" fill="#afccda" stroke="#afccda" /><polygon points="487,159 492,104 458,132" fill="#8a6e8e" stroke="#8a6e8e" /><polygon points="477,85 466,14 424,49" fill="#8f2c75" stroke="#8f2c75" /><polygon points="479,210 456,200 438,234" fill="#ba9585" stroke="#ba9585" /><polygon points="491,80 466,14 477,85" fill="#853477" stroke="#853477" /><polygon points="492,104 491,80 477,85" fill="#85497e" stroke="#85497e" /><polygon points="94,257 120,270 105,228" fill="#d9d9c8" stroke="#d9d9c8" /><polygon points="470,269 479,210 438,234" fill="#c49c80" stroke="#c49c80" /><polygon points="120,270 137,290 157,224" fill="#ddd7c6" stroke="#ddd7c6" /><polygon points="38,122 127,118 107,62" fill="#9eaccb" stroke="#9eaccb" /><polygon points="69,151 62,171 107,193" fill="#afc9d0" stroke="#afc9d0" /><polygon points="100,228 94,257 105,228" fill="#d7ddce" stroke="#d7ddce" /><polygon points="502,204 496,172 484,182" fill="#968786" stroke="#968786" /><polygon points="484,182 496,172 487,159" fill="#8b7e85" stroke="#8b7e85" /><polygon points="487,159 530,150 492,104" fill="#7d6c86" stroke="#7d6c86" /><polygon points="549,90 509,51 491,80" fill="#753d7a" stroke="#753d7a" /><polygon points="60,159 62,171 69,151" fill="#abc8d1" stroke="#abc8d1" /><polygon points="425,274 461,276 438,234" fill="#daa788" stroke="#daa788" /><polygon points="420,300 425,274 386,296" fill="#e2aa9f" stroke="#e2aa9f" /><polygon points="105,0 71,29 116,40" fill="#a69fbe" stroke="#a69fbe" /><polygon points="105,300 140,300 137,290" fill="#e6ddd7" stroke="#e6ddd7" /><polygon points="137,290 140,300 175,300" fill="#e0d4d0" stroke="#e0d4d0" /><polygon points="385,300 420,300 386,296" fill="#e8a7a6" stroke="#e8a7a6" /><polygon points="77,260 94,257 100,228" fill="#dadecb" stroke="#dadecb" /><polygon points="120,270 105,300 137,290" fill="#e2dbd1" stroke="#e2dbd1" /><polygon points="509,51 489,14 466,14" fill="#801d66" stroke="#801d66" /><polygon points="466,14 490,0 455,0" fill="#851654" stroke="#851654" /><polygon points="509,51 466,14 491,80" fill="#82276f" stroke="#82276f" /><polygon points="479,210 502,204 484,182" fill="#a08d84" stroke="#a08d84" /><polygon points="549,90 491,80 492,104" fill="#765082" stroke="#765082" /><polygon points="513,224 502,204 479,210" fill="#a89280" stroke="#a89280" /><polygon points="461,276 425,274 430,285" fill="#dda691" stroke="#dda691" /><polygon points="530,150 487,159 496,172" fill="#827986" stroke="#827986" /><polygon points="455,300 461,276 430,285" fill="#e1aa96" stroke="#e1aa96" /><polygon points="105,0 70,0 71,29" fill="#a4a0b8" stroke="#a4a0b8" /><polygon points="32,50 38,122 107,62" fill="#aab2d0" stroke="#aab2d0" /><polygon points="60,159 0,175 62,171" fill="#bbd7dc" stroke="#bbd7dc" /><polygon points="18,229 77,260 100,228" fill="#dce4d1" stroke="#dce4d1" /><polygon points="25,124 38,122 0,105" fill="#b0c6da" stroke="#b0c6da" /><polygon points="525,0 490,0 489,14" fill="#781652" stroke="#781652" /><polygon points="489,14 490,0 466,14" fill="#801454" stroke="#801454" /><polygon points="461,276 470,269 438,234" fill="#d3a583" stroke="#d3a583" /><polygon points="18,229 100,228 62,171" fill="#cddfd5" stroke="#cddfd5" /><polygon points="94,257 105,300 120,270" fill="#e3e0d1" stroke="#e3e0d1" /><polygon points="74,297 105,300 94,257" fill="#e6e3d5" stroke="#e6e3d5" /><polygon points="420,300 455,300 430,285" fill="#dea498" stroke="#dea498" /><polygon points="461,276 490,300 470,269" fill="#d7aa91" stroke="#d7aa91" /><polygon points="557,195 496,172 502,204" fill="#8c8983" stroke="#8c8983" /><polygon points="513,224 479,210 470,269" fill="#bc9d81" stroke="#bc9d81" /><polygon points="557,195 530,150 496,172" fill="#787d80" stroke="#787d80" /><polygon points="32,50 107,62 71,29" fill="#a6a6c7" stroke="#a6a6c7" /><polygon points="38,122 25,124 60,159" fill="#aac4d4" stroke="#aac4d4" /><polygon points="533,219 513,224 530,263" fill="#ab987a" stroke="#ab987a" /><polygon points="35,0 32,50 71,29" fill="#aeacc6" stroke="#aeacc6" /><polygon points="530,150 549,90 492,104" fill="#6c5c82" stroke="#6c5c82" /><polygon points="509,51 525,0 489,14" fill="#791a60" stroke="#791a60" /><polygon points="571,136 549,90 530,150" fill="#5f6682" stroke="#5f6682" /><polygon points="70,300 74,297 77,260" fill="#eeedde" stroke="#eeedde" /><polygon points="77,260 74,297 94,257" fill="#e9e9d6" stroke="#e9e9d6" /><polygon points="70,0 35,0 71,29" fill="#aca9bc" stroke="#aca9bc" /><polygon points="0,105 7,119 25,124" fill="#b3c9dc" stroke="#b3c9dc" /><polygon points="0,105 38,122 0,70" fill="#b3c2d8" stroke="#b3c2d8" /><polygon points="25,124 0,140 60,159" fill="#b3d0dd" stroke="#b3d0dd" /><polygon points="530,263 513,224 470,269" fill="#bda07d" stroke="#bda07d" /><polygon points="513,224 533,219 502,204" fill="#a59480" stroke="#a59480" /><polygon points="570,30 525,0 509,51" fill="#6a1c61" stroke="#6a1c61" /><polygon points="31,261 70,300 77,260" fill="#e4e5d1" stroke="#e4e5d1" /><polygon points="74,297 70,300 105,300" fill="#eae6dd" stroke="#eae6dd" /><polygon points="455,300 490,300 461,276" fill="#d7a894" stroke="#d7a894" /><polygon points="0,70 38,122 32,50" fill="#afb7d1" stroke="#afb7d1" /><polygon points="7,119 0,140 25,124" fill="#aec8d9" stroke="#aec8d9" /><polygon points="0,105 0,140 7,119" fill="#b6ccdd" stroke="#b6ccdd" /><polygon points="0,210 18,229 62,171" fill="#c6dad1" stroke="#c6dad1" /><polygon points="0,43 0,70 32,50" fill="#adb0c9" stroke="#adb0c9" /><polygon points="0,140 0,175 60,159" fill="#b4d1d8" stroke="#b4d1d8" /><polygon points="18,229 31,261 77,260" fill="#e4ead4" stroke="#e4ead4" /><polygon points="598,215 557,195 533,219" fill="#93947f" stroke="#93947f" /><polygon points="533,219 557,195 502,204" fill="#999282" stroke="#999282" /><polygon points="490,300 530,263 470,269" fill="#cfa98d" stroke="#cfa98d" /><polygon points="557,195 563,177 530,150" fill="#747e7f" stroke="#747e7f" /><polygon points="0,35 0,43 32,50" fill="#b4b5cd" stroke="#b4b5cd" /><polygon points="35,0 0,35 32,50" fill="#acabc4" stroke="#acabc4" /><polygon points="563,177 571,136 530,150" fill="#677884" stroke="#677884" /><polygon points="549,90 570,30 509,51" fill="#6b3374" stroke="#6b3374" /><polygon points="0,175 0,210 62,171" fill="#c5dfdd" stroke="#c5dfdd" /><polygon points="18,229 0,248 31,261" fill="#e7efd8" stroke="#e7efd8" /><polygon points="600,119 578,109 571,136" fill="#576784" stroke="#576784" /><polygon points="571,136 578,109 549,90" fill="#586185" stroke="#586185" /><polygon points="561,266 546,258 563,274" fill="#b7a57c" stroke="#b7a57c" /><polygon points="530,263 546,258 533,219" fill="#b49e7c" stroke="#b49e7c" /><polygon points="600,170 597,159 563,177" fill="#6b8284" stroke="#6b8284" /><polygon points="563,177 597,159 571,136" fill="#647c85" stroke="#647c85" /><polygon points="0,280 35,300 31,261" fill="#ebebd8" stroke="#ebebd8" /><polygon points="31,261 35,300 70,300" fill="#ececdb" stroke="#ececdb" /><polygon points="35,0 0,0 0,35" fill="#adacbe" stroke="#adacbe" /><polygon points="581,68 570,30 549,90" fill="#58356f" stroke="#58356f" /><polygon points="490,300 525,300 530,263" fill="#c6a68e" stroke="#c6a68e" /><polygon points="570,30 560,0 525,0" fill="#62154f" stroke="#62154f" /><polygon points="578,109 581,68 549,90" fill="#594a78" stroke="#594a78" /><polygon points="0,210 0,245 18,229" fill="#dde9d5" stroke="#dde9d5" /><polygon points="0,245 0,248 18,229" fill="#e1e9d4" stroke="#e1e9d4" /><polygon points="0,248 0,268 31,261" fill="#eef2d8" stroke="#eef2d8" /><polygon points="563,274 546,258 530,263" fill="#b8a07a" stroke="#b8a07a" /><polygon points="546,258 598,215 533,219" fill="#a39879" stroke="#a39879" /><polygon points="600,170 563,177 600,175" fill="#66827f" stroke="#66827f" /><polygon points="578,109 600,74 581,68" fill="#544575" stroke="#544575" /><polygon points="600,140 600,119 571,136" fill="#506e84" stroke="#506e84" /><polygon points="581,68 600,35 570,30" fill="#4f2362" stroke="#4f2362" /><polygon points="570,30 595,0 560,0" fill="#55144a" stroke="#55144a" /><polygon points="600,119 600,105 578,109" fill="#485e7f" stroke="#485e7f" /><polygon points="597,159 600,140 571,136" fill="#577583" stroke="#577583" /><polygon points="0,268 0,280 31,261" fill="#eff2da" stroke="#eff2da" /><polygon points="525,300 563,274 530,263" fill="#c2aa8b" stroke="#c2aa8b" /><polygon points="600,175 563,177 600,210" fill="#72857c" stroke="#72857c" /><polygon points="600,105 600,74 578,109" fill="#4f4f78" stroke="#4f4f78" /><polygon points="600,74 600,70 581,68" fill="#503a70" stroke="#503a70" /><polygon points="563,177 557,195 600,210" fill="#7f887c" stroke="#7f887c" /><polygon points="597,159 600,170 600,140" fill="#597c83" stroke="#597c83" /><polygon points="598,215 546,258 600,245" fill="#a19a76" stroke="#a19a76" /><polygon points="600,70 600,35 581,68" fill="#4e2e67" stroke="#4e2e67" /><polygon points="0,280 0,300 35,300" fill="#f4f3e3" stroke="#f4f3e3" /><polygon points="600,35 600,31 570,30" fill="#501d5e" stroke="#501d5e" /><polygon points="600,245 546,258 561,266" fill="#ae9f76" stroke="#ae9f76" /><polygon points="598,215 600,210 557,195" fill="#8c947f" stroke="#8c947f" /><polygon points="525,300 560,300 563,274" fill="#bda48c" stroke="#bda48c" /><polygon points="600,256 600,245 561,266" fill="#ada379" stroke="#ada379" /><polygon points="560,300 567,294 563,274" fill="#c0a98f" stroke="#c0a98f" /><polygon points="598,215 600,245 600,210" fill="#959b7a" stroke="#959b7a" /><polygon points="600,31 595,0 570,30" fill="#501d58" stroke="#501d58" /><polygon points="600,31 600,0 595,0" fill="#4b1447" stroke="#4b1447" /><polygon points="600,256 561,266 563,274" fill="#b6a67c" stroke="#b6a67c" /><polygon points="600,280 600,256 563,274" fill="#b2a77e" stroke="#b2a77e" /><polygon points="595,300 600,280 567,294" fill="#b3a387" stroke="#b3a387" /><polygon points="567,294 600,280 563,274" fill="#bbaa8a" stroke="#bbaa8a" /><polygon points="560,300 595,300 567,294" fill="#bba58e" stroke="#bba58e" /><polygon points="595,300 600,300 600,280" fill="#baac90" stroke="#baac90" /></svg>